<svg width="102" height="98" viewBox="0 0 102 98" fill="none" xmlns="http://www.w3.org/2000/svg">
  <style>
    @keyframes change-gradient-color {
      0% {
        stop-color: #c361ff;
      }

      33% {
        stop-color: #5ffa4d;
      }

      66% {
        stop-color: #fb5841;
      }

      100% {
        stop-color: #c361ff;
      }
    }

    #gradient-endpoint {
      animation: change-gradient-color 5s linear;
      animation-iteration-count: infinite;
    }
  </style>
  <path d="M95.658 75.322c-7 18.061-19.853 25.334-38.56 21.819-18.706-3.515-34.395-12.546-47.067-27.092-12.672-14.546-12.008-27.88 1.991-40.002 14-12.121 29.81-21.334 47.43-27.637 17.62-6.303 29.81-.242 36.568 18.183 6.759 18.424 6.638 36.668-.362 54.729z" fill="url(#paint0_linear)"/><path d="M15.623 59v-9.393h3.894V59h3.489V37.083h-3.49v9.393h-3.893v-9.393h-3.427V59h3.427zM25.21 42.343V53.74c0 3.507 1.838 5.51 5.203 5.51 3.364 0 5.202-2.003 5.202-5.51V42.343c0-3.507-1.838-5.51-5.202-5.51-3.365 0-5.203 2.003-5.203 5.51zm3.427 11.616V42.124c0-1.566.686-2.16 1.776-2.16 1.09 0 1.775.594 1.775 2.16v11.835c0 1.566-.685 2.16-1.775 2.16-1.09 0-1.776-.594-1.776-2.16zM36.845 37.083v3.131h3.583V59h3.427V40.214h3.582v-3.131H36.845zM48.51 42.343c0 6.262 6.698 7.107 6.698 11.616 0 1.566-.685 2.13-1.776 2.13-1.09 0-1.775-.564-1.775-2.13v-1.566h-3.24v1.347c0 3.507 1.744 5.51 5.109 5.51 3.364 0 5.109-2.003 5.109-5.51 0-6.262-6.698-7.108-6.698-11.616 0-1.566.623-2.16 1.714-2.16 1.09 0 1.713.594 1.713 2.16v.908h3.24v-.689c0-3.507-1.714-5.51-5.047-5.51-3.333 0-5.047 2.003-5.047 5.51zM60.598 37.083V59h3.427V37.083h-3.427zM71.67 46.79v3.13h1.558v4.039c0 1.566-.685 2.13-1.775 2.13-1.09 0-1.776-.564-1.776-2.13V42.124c0-1.566.685-2.16 1.776-2.16 1.09 0 1.775.594 1.775 2.16v2.348h3.24v-2.129c0-3.507-1.744-5.51-5.109-5.51-3.364 0-5.109 2.003-5.109 5.51V53.74c0 3.507 1.745 5.51 5.11 5.51 3.364 0 5.108-2.003 5.108-5.51v-6.95h-4.797zM81.722 43.126L85.99 59h3.52V37.083h-3.053v13.119l-3.52-13.119h-4.299V59h3.084V43.126z" fill="#000"/><path d="M99.442 24.109H2.558v49.47h96.884v-49.47z" stroke="#000" stroke-width="3.131"/><path d="M50.844 69.821c.86 0 1.558-.7 1.558-1.565s-.697-1.566-1.558-1.566c-.86 0-1.557.701-1.557 1.566 0 .864.697 1.565 1.557 1.565z" fill="#000"/>
  <defs><linearGradient id="paint0_linear" x1="1" y1="2.352" x2="117.431" y2="32.969" gradientUnits="userSpaceOnUse"><stop stop-color="#fff"/><stop id="gradient-endpoint" offset="1" stop-color="#C361FF"/></linearGradient></defs>
</svg>
